<mxfile host="app.diagrams.net" agent="Mozilla/5.0 (Macintosh; Intel Mac OS X 10_15_7) AppleWebKit/537.36 (KHTML, like Gecko) Chrome/131.0.0.0 Safari/537.36" version="26.0.10">
  <diagram name="Page-1" id="p08DTsYiqtUvrWpfvBTw">
    <mxGraphModel dx="1000" dy="-810" grid="0" gridSize="10" guides="1" tooltips="1" connect="1" arrows="1" fold="1" page="0" pageScale="1" pageWidth="850" pageHeight="1100" math="0" shadow="0">
      <root>
        <mxCell id="0" />
        <mxCell id="1" parent="0" />
        <mxCell id="R7uVIPCgWsmh0zvHTCJ3-22" value="=" style="text;html=1;align=center;verticalAlign=middle;whiteSpace=wrap;rounded=0;fontStyle=1;fontSize=43;fontColor=#333333;" vertex="1" parent="1">
          <mxGeometry x="645" y="2169" width="60" height="30" as="geometry" />
        </mxCell>
        <mxCell id="R7uVIPCgWsmh0zvHTCJ3-5" value="&lt;div&gt;Alcohol Abuse Prevalence&lt;/div&gt;&lt;div&gt;[ max: 1 point ]&amp;nbsp;&lt;/div&gt;" style="rounded=1;whiteSpace=wrap;html=1;container=0;fontColor=#ffffff;fillColor=#76608a;strokeColor=#432D57;fontSize=14;verticalAlign=middle;align=center;" vertex="1" parent="1">
          <mxGeometry x="334" y="2078" width="190" height="70" as="geometry" />
        </mxCell>
        <mxCell id="R7uVIPCgWsmh0zvHTCJ3-6" value="&lt;div&gt;Substance Abuse Prevalence&lt;/div&gt;&lt;div&gt;[ max: 1 point ]&amp;nbsp;&lt;/div&gt;" style="rounded=1;whiteSpace=wrap;html=1;container=0;fontColor=#ffffff;fillColor=#76608a;strokeColor=#432D57;fontSize=14;verticalAlign=middle;align=center;" vertex="1" parent="1">
          <mxGeometry x="580" y="2078" width="190" height="70" as="geometry" />
        </mxCell>
        <mxCell id="R7uVIPCgWsmh0zvHTCJ3-7" value="&lt;div&gt;Travel Time to NSC&lt;/div&gt;&lt;div&gt;[ max: 5 points ]&amp;nbsp;&lt;/div&gt;" style="rounded=1;whiteSpace=wrap;html=1;container=0;fontColor=#ffffff;fillColor=#76608a;strokeColor=#432D57;fontSize=14;verticalAlign=middle;align=center;" vertex="1" parent="1">
          <mxGeometry x="819" y="2081" width="190" height="70" as="geometry" />
        </mxCell>
        <mxCell id="R7uVIPCgWsmh0zvHTCJ3-13" value="" style="shape=cross;whiteSpace=wrap;html=1;size=0.15;fillStyle=solid;fillColor=#333333;strokeColor=#333333;" vertex="1" parent="1">
          <mxGeometry x="784.5" y="2103" width="20" height="20" as="geometry" />
        </mxCell>
        <mxCell id="R7uVIPCgWsmh0zvHTCJ3-15" value="" style="shape=cross;whiteSpace=wrap;html=1;size=0.15;fillStyle=solid;fillColor=#333333;strokeColor=#333333;" vertex="1" parent="1">
          <mxGeometry x="542" y="2103" width="20" height="20" as="geometry" />
        </mxCell>
        <mxCell id="R7uVIPCgWsmh0zvHTCJ3-26" value="&lt;div&gt;&lt;font style=&quot;color: rgb(51, 51, 51);&quot;&gt;&lt;b&gt;HPSA Area Score&lt;/b&gt;&lt;/font&gt;&lt;/div&gt;&lt;div&gt;&lt;font style=&quot;color: rgb(51, 51, 51);&quot;&gt;&lt;b&gt;[ 0 - 25 points ]&amp;nbsp;&lt;/b&gt;&lt;/font&gt;&lt;/div&gt;" style="rounded=1;whiteSpace=wrap;html=1;container=0;fontColor=#000000;fontSize=14;fillColor=#f0a30a;strokeColor=#BD7000;" vertex="1" parent="1">
          <mxGeometry x="580" y="2216" width="190" height="70" as="geometry" />
        </mxCell>
        <mxCell id="R7uVIPCgWsmh0zvHTCJ3-1" value="&lt;font style=&quot;color: rgb(255, 255, 255);&quot;&gt;Population-to-Provider Ratio&lt;/font&gt;&lt;div&gt;&lt;span style=&quot;background-color: transparent;&quot;&gt;&lt;font style=&quot;color: rgb(255, 255, 255);&quot;&gt;[ max: 7 points ]&amp;nbsp;&lt;/font&gt;&lt;/span&gt;&lt;/div&gt;" style="rounded=1;whiteSpace=wrap;html=1;container=0;fontColor=#ffffff;fillColor=#76608a;strokeColor=#432D57;fontSize=14;align=center;verticalAlign=middle;" vertex="1" parent="1">
          <mxGeometry x="223" y="1998" width="190" height="70" as="geometry" />
        </mxCell>
        <mxCell id="R7uVIPCgWsmh0zvHTCJ3-2" value="&lt;div&gt;% Population below&amp;nbsp;&lt;/div&gt;&lt;div&gt;100% Federal Poverty Line&lt;/div&gt;&lt;div&gt;[ max: 5 points ]&amp;nbsp;&lt;/div&gt;" style="rounded=1;whiteSpace=wrap;html=1;container=0;fontColor=#ffffff;fillColor=#76608a;strokeColor=#432D57;fontSize=14;align=center;verticalAlign=middle;" vertex="1" parent="1">
          <mxGeometry x="462" y="1998" width="190" height="70" as="geometry" />
        </mxCell>
        <mxCell id="R7uVIPCgWsmh0zvHTCJ3-3" value="&lt;div&gt;Elderly Ratio&lt;/div&gt;&lt;div&gt;[ max: 3 points ]&amp;nbsp;&lt;/div&gt;" style="rounded=1;whiteSpace=wrap;html=1;container=0;fontColor=#ffffff;fillColor=#76608a;strokeColor=#432D57;fontSize=14;align=center;verticalAlign=middle;" vertex="1" parent="1">
          <mxGeometry x="701" y="1996" width="190" height="70" as="geometry" />
        </mxCell>
        <mxCell id="R7uVIPCgWsmh0zvHTCJ3-4" value="&lt;div&gt;Youth Ratio&lt;/div&gt;&lt;div&gt;[ max: 3 points ]&amp;nbsp;&lt;/div&gt;" style="rounded=1;whiteSpace=wrap;html=1;container=0;fontColor=#ffffff;fillColor=#76608a;strokeColor=#432D57;fontSize=14;align=center;verticalAlign=middle;" vertex="1" parent="1">
          <mxGeometry x="940" y="1996" width="190" height="70" as="geometry" />
        </mxCell>
        <mxCell id="R7uVIPCgWsmh0zvHTCJ3-16" value="" style="shape=cross;whiteSpace=wrap;html=1;size=0.15;fillStyle=solid;fillColor=#333333;strokeColor=#333333;" vertex="1" parent="1">
          <mxGeometry x="666.5" y="2023" width="20" height="20" as="geometry" />
        </mxCell>
        <mxCell id="R7uVIPCgWsmh0zvHTCJ3-17" value="" style="shape=cross;whiteSpace=wrap;html=1;size=0.15;fillStyle=solid;fillColor=#333333;strokeColor=#333333;" vertex="1" parent="1">
          <mxGeometry x="427.5" y="2023" width="20" height="20" as="geometry" />
        </mxCell>
        <mxCell id="R7uVIPCgWsmh0zvHTCJ3-18" value="" style="shape=cross;whiteSpace=wrap;html=1;size=0.15;fillStyle=solid;fillColor=#333333;strokeColor=#333333;" vertex="1" parent="1">
          <mxGeometry x="1144.5" y="2021" width="20" height="20" as="geometry" />
        </mxCell>
        <mxCell id="R7uVIPCgWsmh0zvHTCJ3-19" value="" style="shape=cross;whiteSpace=wrap;html=1;size=0.15;fillStyle=solid;fillColor=#333333;strokeColor=#333333;" vertex="1" parent="1">
          <mxGeometry x="906" y="2021" width="20" height="20" as="geometry" />
        </mxCell>
      </root>
    </mxGraphModel>
  </diagram>
</mxfile>
